<svg width="117" height="67" viewBox="0 0 117 67" fill="none" xmlns="http://www.w3.org/2000/svg">
<rect y="0.893555" width="10" height="10" rx="5" fill="#515151"/>
<rect y="0.893555" width="10" height="10" rx="5" fill="#515151"/>
<rect y="0.893555" width="10" height="10" rx="5" fill="#515151"/>
<rect y="0.893555" width="10" height="10" rx="5" fill="#515151"/>
<rect x="15" y="0.893555" width="10" height="10" rx="5" fill="#515151"/>
<rect x="15" y="0.893555" width="10" height="10" rx="5" fill="#515151"/>
<rect x="15" y="0.893555" width="10" height="10" rx="5" fill="#515151"/>
<rect x="15" y="0.893555" width="10" height="10" rx="5" fill="#515151"/>
<rect x="29" y="0.893555" width="10" height="10" rx="5" fill="#515151"/>
<rect x="29" y="0.893555" width="10" height="10" rx="5" fill="#515151"/>
<rect x="29" y="0.893555" width="10" height="10" rx="5" fill="#515151"/>
<rect x="29" y="0.893555" width="10" height="10" rx="5" fill="#515151"/>
<rect x="42" y="0.893555" width="10" height="10" rx="5" fill="#515151"/>
<rect x="42" y="0.893555" width="10" height="10" rx="5" fill="#515151"/>
<rect x="42" y="0.893555" width="10" height="10" rx="5" fill="#515151"/>
<rect x="42" y="0.893555" width="10" height="10" rx="5" fill="#515151"/>
<rect x="15" y="14.8936" width="10" height="10" rx="5" fill="#515151"/>
<rect x="15" y="14.8936" width="10" height="10" rx="5" fill="#515151"/>
<rect x="15" y="14.8936" width="10" height="10" rx="5" fill="#515151"/>
<rect x="15" y="14.8936" width="10" height="10" rx="5" fill="#515151"/>
<rect x="30" y="14.8936" width="10" height="10" rx="5" fill="#515151"/>
<rect x="30" y="14.8936" width="10" height="10" rx="5" fill="#515151"/>
<rect x="30" y="14.8936" width="10" height="10" rx="5" fill="#515151"/>
<rect x="30" y="14.8936" width="10" height="10" rx="5" fill="#515151"/>
<rect x="44" y="14.8936" width="10" height="10" rx="5" fill="#515151"/>
<rect x="44" y="14.8936" width="10" height="10" rx="5" fill="#515151"/>
<rect x="44" y="14.8936" width="10" height="10" rx="5" fill="#515151"/>
<rect x="44" y="14.8936" width="10" height="10" rx="5" fill="#515151"/>
<rect x="57" y="14.8936" width="10" height="10" rx="5" fill="#515151"/>
<rect x="57" y="14.8936" width="10" height="10" rx="5" fill="#515151"/>
<rect x="57" y="14.8936" width="10" height="10" rx="5" fill="#515151"/>
<rect x="57" y="14.8936" width="10" height="10" rx="5" fill="#515151"/>
<rect x="31" y="28.8936" width="10" height="10" rx="5" fill="#515151"/>
<rect x="31" y="28.8936" width="10" height="10" rx="5" fill="#515151"/>
<rect x="31" y="28.8936" width="10" height="10" rx="5" fill="#515151"/>
<rect x="31" y="28.8936" width="10" height="10" rx="5" fill="#515151"/>
<rect x="46" y="28.8936" width="10" height="10" rx="5" fill="#515151"/>
<rect x="46" y="28.8936" width="10" height="10" rx="5" fill="#515151"/>
<rect x="46" y="28.8936" width="10" height="10" rx="5" fill="#515151"/>
<rect x="46" y="28.8936" width="10" height="10" rx="5" fill="#515151"/>
<rect x="60" y="28.8936" width="10" height="10" rx="5" fill="#515151"/>
<rect x="60" y="28.8936" width="10" height="10" rx="5" fill="#515151"/>
<rect x="60" y="28.8936" width="10" height="10" rx="5" fill="#515151"/>
<rect x="60" y="28.8936" width="10" height="10" rx="5" fill="#515151"/>
<rect x="73" y="28.8936" width="10" height="10" rx="5" fill="#515151"/>
<rect x="73" y="28.8936" width="10" height="10" rx="5" fill="#515151"/>
<rect x="73" y="28.8936" width="10" height="10" rx="5" fill="#515151"/>
<rect x="73" y="28.8936" width="10" height="10" rx="5" fill="#515151"/>
<rect x="47" y="42.8936" width="10" height="10" rx="5" fill="#515151"/>
<rect x="47" y="42.8936" width="10" height="10" rx="5" fill="#515151"/>
<rect x="47" y="42.8936" width="10" height="10" rx="5" fill="#515151"/>
<rect x="47" y="42.8936" width="10" height="10" rx="5" fill="#515151"/>
<rect x="62" y="42.8936" width="10" height="10" rx="5" fill="#515151"/>
<rect x="62" y="42.8936" width="10" height="10" rx="5" fill="#515151"/>
<rect x="62" y="42.8936" width="10" height="10" rx="5" fill="#515151"/>
<rect x="62" y="42.8936" width="10" height="10" rx="5" fill="#515151"/>
<rect x="76" y="42.8936" width="10" height="10" rx="5" fill="#515151"/>
<rect x="76" y="42.8936" width="10" height="10" rx="5" fill="#515151"/>
<rect x="76" y="42.8936" width="10" height="10" rx="5" fill="#515151"/>
<rect x="76" y="42.8936" width="10" height="10" rx="5" fill="#515151"/>
<rect x="89" y="42.8936" width="10" height="10" rx="5" fill="#515151"/>
<rect x="89" y="42.8936" width="10" height="10" rx="5" fill="#515151"/>
<rect x="89" y="42.8936" width="10" height="10" rx="5" fill="#515151"/>
<rect x="89" y="42.8936" width="10" height="10" rx="5" fill="#515151"/>
<rect x="65" y="56.8936" width="10" height="10" rx="5" fill="#515151"/>
<rect x="65" y="56.8936" width="10" height="10" rx="5" fill="#515151"/>
<rect x="65" y="56.8936" width="10" height="10" rx="5" fill="#515151"/>
<rect x="65" y="56.8936" width="10" height="10" rx="5" fill="#515151"/>
<rect x="80" y="56.8936" width="10" height="10" rx="5" fill="#515151"/>
<rect x="80" y="56.8936" width="10" height="10" rx="5" fill="#515151"/>
<rect x="80" y="56.8936" width="10" height="10" rx="5" fill="#515151"/>
<rect x="80" y="56.8936" width="10" height="10" rx="5" fill="#515151"/>
<rect x="94" y="56.8936" width="10" height="10" rx="5" fill="#515151"/>
<rect x="94" y="56.8936" width="10" height="10" rx="5" fill="#515151"/>
<rect x="94" y="56.8936" width="10" height="10" rx="5" fill="#515151"/>
<rect x="94" y="56.8936" width="10" height="10" rx="5" fill="#515151"/>
<rect x="107" y="56.8936" width="10" height="10" rx="5" fill="#515151"/>
<rect x="107" y="56.8936" width="10" height="10" rx="5" fill="#515151"/>
<rect x="107" y="56.8936" width="10" height="10" rx="5" fill="#515151"/>
<rect x="107" y="56.8936" width="10" height="10" rx="5" fill="#515151"/>
</svg>
